# xmcd CD Database Entry
#
# Track frame offsets:
# 150
# 10905
# 22255
# 40160
# 65337
#
# Disc length: 1119 seconds
#
# Revision: 1
# Processed by: cddbd v1.4PL0 Copyright (c) Steve Scherf et al.
# Submitted via: tcd 2.0b
#
DISCID=3a045d05
DTITLE=North Mississippi Allstars - Shimmy She Wobble
DYEAR=1900
DGENRE=
TTITLE0=shimmy she wobble I
TTITLE1=i'm in jail
TTITLE2=all night long
TTITLE3=shimmy she wobble II
TTITLE4=freedom highway
EXTD=
EXTT0=
EXTT1=
EXTT2=
EXTT3=
EXTT4=
PLAYORDER=
